<?xml version="1.0" encoding="utf-8" ?><svg xmlns="http://www.w3.org/2000/svg" xmlns:xlink="http://www.w3.org/1999/xlink" width="2048" height="2048" viewBox="0 0 2048 2048"><defs><linearGradient id="gradient_0" gradientUnits="userSpaceOnUse" x1="567.84747" y1="468.91971" x2="823.78644" y2="114.8513"><stop offset="0" stop-color="#B6DBFF"/><stop offset="1" stop-color="#FFFFF8"/></linearGradient></defs><path fill="url(#gradient_0)" transform="scale(2 2)" d="M693.029 171.723C682.301 181.459 671.205 192.343 670.944 207.641C670.89 210.791 670.696 217.399 672.159 220.093L672.985 220.33C675.587 218.43 677.519 216.111 679.815 213.897C690.306 203.781 701.542 194.435 713.66 186.381C744.138 166.124 783.49 157.31 803.512 124.001C810.204 113.138 813.283 105.457 818.948 94.2648C819.252 130.208 812.017 150.968 791.39 180.362C787.736 185.569 783.236 192.619 779.437 197.5C765.508 217.982 751.467 241.797 754.453 267.324C757.693 279.607 767.186 285.83 779.542 282.372C791.18 279.115 800.295 268.984 806.405 258.939C815.111 243.736 816.77 222.086 817.1 204.646C819.269 209.827 821.807 214.767 823.318 220.206C837.277 270.46 812.318 321.142 770.694 349.868C765.229 353.64 758.088 358.565 752.961 362.624C757.648 365.396 768.625 365.505 773.936 364.669C794.822 361.381 807.327 342.967 818.81 327.176C818.113 332.779 817.266 338.361 816.271 343.919C813.707 353.902 812.241 359.529 807.682 368.938C793.45 395.983 765.612 413.691 737.052 422.58C731.637 424.24 726.159 425.688 720.631 426.92C712.678 428.639 704.612 429.788 696.495 430.36C670.392 432.344 628.045 431.101 610.575 455.901C607.779 460.627 605.19 465.767 605.807 471.422C606.388 476.757 615.054 477.707 615.723 481.597C616.889 488.379 603.157 491.222 598.247 492.067C595.704 492.504 592.204 492.526 589.292 492.468C588.059 494.537 586.273 497.809 584.758 499.542C583.376 502.778 573.955 516.213 571.499 519.981C560.704 537.229 548.343 554.89 536.954 571.869L496.684 632.809C452.274 699.894 407.094 768.744 361.601 835.001L358.672 834.858C354.709 826.629 356.953 824.284 348.523 815.468L346.759 814.114L343.382 812.163C338.51 809.712 334.699 808.98 329.379 808.371C327.2 808.704 322.873 809.667 321.175 808.804L321.498 807.817C321.005 806.506 320.957 806.584 320.177 805.374C335.194 782.937 351.522 760.3 366.924 737.984L466.01 594.061C482.829 569.844 499.524 545.54 516.093 521.152C525.849 506.825 538.835 486.576 549.472 473.657L549.462 473.012C544.303 466.167 540.186 450.64 548.492 444.445C551.093 442.505 554.11 443.415 557.037 444.053C560.29 443.073 560.771 442.6 563.591 440.754C585.08 418.647 575.546 394.155 564.791 369.063C561.672 362.828 558.623 356.559 555.643 350.257C542.404 322.264 539.53 297.043 550.111 267.512C550.62 266.014 551.177 264.532 551.781 263.068C561.153 240.403 587.088 213.535 609.73 204.128C603.704 213.745 597.913 220.19 592.877 231C585.649 249.839 585.872 260.592 601.191 274.867C605.302 259.268 607.916 247.03 613.743 231.707C617.627 221.881 621.071 213.578 627.19 204.87C649.326 173.367 682.704 153.959 721.256 153.351C718.081 155.34 714.564 157.241 711.279 159.09C704.604 163.36 699.417 166.92 693.029 171.723Z"/><path fill="#ADD5FD" transform="scale(2 2)" d="M549.462 473.012C550.107 471.828 550.597 470.786 551.161 469.573C553.413 471.264 554.982 469.966 557.516 468.906L558.304 470.602C567.177 469.529 571.438 471.033 579.048 475.519C570.467 489.063 561.698 501.196 552.636 514.319L516.572 566.841L401.724 733.842C383.804 759.999 363.906 787.769 346.759 814.114L343.382 812.163C338.51 809.712 334.699 808.98 329.379 808.371C327.2 808.704 322.873 809.667 321.175 808.804L321.498 807.817C321.005 806.506 320.957 806.584 320.177 805.374C335.194 782.937 351.522 760.3 366.924 737.984L466.01 594.061C482.829 569.844 499.524 545.54 516.093 521.152C525.849 506.825 538.835 486.576 549.472 473.657L549.462 473.012Z"/><path fill="#FEFEFE" transform="scale(2 2)" d="M329.379 808.371C335.441 797.648 345.076 784.246 352.123 773.87L388.365 720.427L502.516 553.083L540.565 497.85C542.461 495.125 549.83 483.651 551.242 482.28C551.734 483.786 525.041 524.696 522.233 529.123L455.512 633.718L385.618 745.536C376.243 761.041 366.682 776.433 356.939 791.709C352.998 797.849 347.684 806.453 343.382 812.163C338.51 809.712 334.699 808.98 329.379 808.371Z"/><path fill="#001430" transform="scale(2 2)" d="M320.177 805.374C335.194 782.937 351.522 760.3 366.924 737.984L466.01 594.061C482.829 569.844 499.524 545.54 516.093 521.152C525.849 506.825 538.835 486.576 549.472 473.657L550.282 475.574L321.498 807.817C321.005 806.506 320.957 806.584 320.177 805.374Z"/><path fill="#051C37" transform="scale(2 2)" d="M549.462 473.012C550.107 471.828 550.597 470.786 551.161 469.573C553.413 471.264 554.982 469.966 557.516 468.906L558.304 470.602C554.359 471.939 553.196 472.598 550.282 475.574L549.472 473.657L549.462 473.012Z"/><path fill="#0076C9" transform="scale(2 2)" d="M581.269 477.781C584.723 482.92 585.833 484.211 587.117 490.266C585.646 494.681 582.296 499.832 579.843 503.917C583.203 502.863 581.726 500.864 584.758 499.542C583.376 502.778 573.955 516.213 571.499 519.981C560.704 537.229 548.343 554.89 536.954 571.869L496.684 632.809C452.274 699.894 407.094 768.744 361.601 835.001L358.672 834.858C354.709 826.629 356.953 824.284 348.523 815.468C354.324 808.389 364.644 792.339 370.12 784.356L410.261 725.95L525.33 558.365L559.267 508.445C565.044 499.942 574.702 485.035 581.269 477.781Z"/><path fill="#0D345C" transform="scale(2 2)" d="M358.672 834.858C378.01 807.069 396.245 778.943 414.995 750.769L502.152 619.626L535.639 569.389C546.745 552.462 557.684 534.986 569.863 518.792L571.499 519.981C560.704 537.229 548.343 554.89 536.954 571.869L496.684 632.809C452.274 699.894 407.094 768.744 361.601 835.001L358.672 834.858Z"/><path fill="#010001" transform="scale(2 2)" d="M579.843 503.917C583.203 502.863 581.726 500.864 584.758 499.542C583.376 502.778 573.955 516.213 571.499 519.981L569.863 518.792C573.149 513.806 576.476 508.848 579.843 503.917Z"/><path fill="#001430" transform="scale(2 2)" d="M586.451 480.968C587.074 456.3 600.638 443.832 618.11 428.608C654.958 396.501 698.808 399.917 743.282 388.464C724.268 408.723 701.721 418.042 677.026 428.93C681.383 429.189 687.223 428.798 691.691 428.539C716.22 427.345 740.208 420.914 762.045 409.68L762.879 410.574C755.448 416.35 732.601 423.164 723.166 425.277C721.612 425.626 720.966 425.878 720.631 426.92C712.678 428.639 704.612 429.788 696.495 430.36C670.392 432.344 628.045 431.101 610.575 455.901C607.779 460.627 605.19 465.767 605.807 471.422C606.388 476.757 615.054 477.707 615.723 481.597C616.889 488.379 603.157 491.222 598.247 492.067C595.704 492.504 592.204 492.526 589.292 492.468C588.059 494.537 586.273 497.809 584.758 499.542C581.726 500.864 583.203 502.863 579.843 503.917C582.296 499.832 585.646 494.681 587.117 490.266C585.833 484.211 584.723 482.92 581.269 477.781C574.702 485.035 565.044 499.942 559.267 508.445L525.33 558.365L410.261 725.95L370.12 784.356C364.644 792.339 354.324 808.389 348.523 815.468L346.759 814.114C363.906 787.769 383.804 759.999 401.724 733.842L516.572 566.841L552.636 514.319C561.698 501.196 570.467 489.063 579.048 475.519C571.438 471.033 567.177 469.529 558.304 470.602L557.516 468.906C554.982 469.966 553.413 471.264 551.161 469.573C550.597 470.786 550.107 471.828 549.462 473.012C544.303 466.167 540.186 450.64 548.492 444.445C551.093 442.505 554.11 443.415 557.037 444.053C557.546 445.02 557.523 444.589 557.447 445.281C556.458 445.396 555.483 445.446 554.545 445.733C544.976 446.882 545.85 454.321 547.337 461.942C547.561 463.114 547.808 464.281 548.078 465.443C549.973 461.046 555.239 452.203 560.863 452.819C563.137 454.559 562.689 456.974 562.182 459.613C561.701 461.803 561.888 465.33 562.281 467.546C563.354 467.912 563.463 467.737 564.605 467.9C577.382 469.722 578.576 471.451 586.451 480.968Z"/><path fill="#D0E3FD" transform="scale(2 2)" d="M551.161 469.573C551.637 466.004 553.439 455.848 558.662 457.091C560.436 459.598 558.571 466.173 557.516 468.906C554.982 469.966 553.413 471.264 551.161 469.573Z"/><path fill="#0076C9" transform="scale(2 2)" d="M730.345 394.631C730.561 394.596 731.791 394.595 732.051 394.591L731.751 395.38C712.741 410.578 690.607 422.333 667.013 428.695C657.322 431.308 647.038 432.506 637.267 435.573C625.041 439.411 612.497 445.844 606.357 457.725C604.095 462.104 602.35 469.736 604.124 474.51C605.733 478.84 609.518 480.374 613.356 482.196C612.601 482.864 611.832 483.518 611.051 484.156C605.87 488.388 597.925 490.952 591.297 490.283L591.395 489.534C593.725 487.295 595.761 485.391 597.225 482.433C598.813 479.224 601.751 470.557 596.82 469.087C593.324 469.825 591.743 472.142 589.316 474.779C592.599 451.409 614.794 433.461 633.143 421.024C662.428 401.174 697.01 401.077 730.345 394.631Z"/><path fill="#ADD5FD" transform="scale(2 2)" d="M595.468 472.869L596.213 473.512C598.184 479.423 594.383 484.015 589.273 486.608C588.323 485.616 588.425 485.604 588.055 484.252C588.598 480.025 592.489 475.792 595.468 472.869Z"/><path fill="#0076C9" transform="scale(2 2)" d="M567.393 368.22L567.87 368.009C567.993 361.864 567.285 355.303 567.521 348.473C568.365 324.085 576.494 308.491 591.334 289.782C589.372 305.894 588.22 318.988 591.752 335.26C593.842 344.889 597.716 356.532 598.857 366.13C603.496 405.182 589.074 440.104 562.281 467.546C561.888 465.33 561.701 461.803 562.182 459.613C562.689 456.974 563.137 454.559 560.863 452.819C555.239 452.203 549.973 461.046 548.078 465.443C547.808 464.281 547.561 463.114 547.337 461.942C545.85 454.321 544.976 446.882 554.545 445.733C555.483 445.446 556.458 445.396 557.447 445.281C557.523 444.589 557.546 445.02 557.037 444.053C560.29 443.073 560.771 442.6 563.591 440.754C585.08 418.647 575.546 394.155 564.791 369.063L567.393 368.22Z"/><defs><linearGradient id="gradient_1" gradientUnits="userSpaceOnUse" x1="611.24603" y1="367.22653" x2="543.65985" y2="386.44241"><stop offset="0" stop-color="black"/><stop offset="1" stop-color="#062F58"/></linearGradient></defs><path fill="url(#gradient_1)" transform="scale(2 2)" d="M567.393 368.22L567.87 368.009C567.993 361.864 567.285 355.303 567.521 348.473C568.365 324.085 576.494 308.491 591.334 289.782C589.372 305.894 588.22 318.988 591.752 335.26C593.842 344.889 597.716 356.532 598.857 366.13C603.496 405.182 589.074 440.104 562.281 467.546C561.888 465.33 561.701 461.803 562.182 459.613C562.23 461.303 562.011 461.113 562.774 462.43L563.823 462.068C567.39 457.982 572.25 452.703 575.213 448.348C592.014 423.652 600.939 392.368 595.688 362.617C593.39 349.601 589.019 337.062 587.399 323.825C586.364 315.372 586.763 308.32 587.007 299.865C570.519 323.151 564.992 352.695 572.663 379.981C579.07 402.773 585.868 424.772 564.744 442.923L563.591 440.754C585.08 418.647 575.546 394.155 564.791 369.063L567.393 368.22Z"/><path fill="#051C37" transform="scale(2 2)" d="M557.037 444.053C560.29 443.073 560.771 442.6 563.591 440.754L564.744 442.923C561.075 445.282 559.007 446.41 554.545 445.733C555.483 445.446 556.458 445.396 557.447 445.281C557.523 444.589 557.546 445.02 557.037 444.053Z"/><path fill="#183645" transform="scale(2 2)" d="M693.029 171.723C682.301 181.459 671.205 192.343 670.944 207.641C670.89 210.791 670.696 217.399 672.159 220.093L672.985 220.33C675.587 218.43 677.519 216.111 679.815 213.897C690.306 203.781 701.542 194.435 713.66 186.381C744.138 166.124 783.49 157.31 803.512 124.001C810.204 113.138 813.283 105.457 818.948 94.2648C819.252 130.208 812.017 150.968 791.39 180.362C787.736 185.569 783.236 192.619 779.437 197.5L777.665 197.499C798.756 165.677 813.913 145.141 816.666 105.486C789.403 160.791 765.662 157.906 717.092 187.446C702.106 196.56 684.01 213.218 672.017 226.11C662.394 202.842 672.426 185.054 691.352 170.429L693.029 171.723Z"/><path fill="#183645" transform="scale(2 2)" d="M817.1 204.646C819.269 209.827 821.807 214.767 823.318 220.206C837.277 270.46 812.318 321.142 770.694 349.868C765.229 353.64 758.088 358.565 752.961 362.624L750.628 360.578C785.136 337.421 817.223 309.813 823.485 265.885C825.622 250.893 824.976 228.626 818.823 214.573C818.496 218.365 818.585 222.359 818.257 226.315C817.306 237.213 814.245 247.823 809.244 257.553C800.684 274.359 776.959 300.221 756.494 277.743C754.919 276.013 753.828 272.676 753.145 270.39C753.517 269.696 754.12 268.118 754.453 267.324C757.693 279.607 767.186 285.83 779.542 282.372C791.18 279.115 800.295 268.984 806.405 258.939C815.111 243.736 816.77 222.086 817.1 204.646Z"/><defs><linearGradient id="gradient_2" gradientUnits="userSpaceOnUse" x1="665.97369" y1="194.47484" x2="653.06805" y2="178.24088"><stop offset="0" stop-color="#0A1F32"/><stop offset="1" stop-color="#203E49"/></linearGradient></defs><path fill="url(#gradient_2)" transform="scale(2 2)" d="M613.743 231.707C617.627 221.881 621.071 213.578 627.19 204.87C649.326 173.367 682.704 153.959 721.256 153.351C718.081 155.34 714.564 157.241 711.279 159.09C710.987 158.336 710.338 157.342 709.908 156.615C666.441 161.039 631.814 193.011 615.791 232.454L613.743 231.707Z"/><path fill="#183645" transform="scale(2 2)" d="M550.111 267.512C550.62 266.014 551.177 264.532 551.781 263.068C561.153 240.403 587.088 213.535 609.73 204.128C603.704 213.745 597.913 220.19 592.877 231L590.629 230.002C593.924 223.139 597.414 218.395 600.629 212.138C576.606 225.123 563.45 244.993 552.21 268.802C551.662 269.156 552.026 268.987 551.042 269.083L550.111 267.512Z"/><path fill="#051C37" transform="scale(2 2)" d="M550.111 267.512L551.042 269.083C552.026 268.987 551.662 269.156 552.21 268.802C543.908 297.896 543.262 319.247 556.84 346.941C560.222 353.839 563.42 361.674 567.393 368.22L564.791 369.063C561.672 362.828 558.623 356.559 555.643 350.257C542.404 322.264 539.53 297.043 550.111 267.512Z"/><path fill="#0D345C" transform="scale(2 2)" d="M816.271 343.919C813.707 353.902 812.241 359.529 807.682 368.938C793.45 395.983 765.612 413.691 737.052 422.58C731.637 424.24 726.159 425.688 720.631 426.92C720.966 425.878 721.612 425.626 723.166 425.277C732.601 423.164 755.448 416.35 762.879 410.574L762.045 409.68C762.956 408.809 772.044 403.678 774.105 402.166C789.051 391.202 797.728 381.567 806.584 365.676C810.348 357.077 811.623 353.65 814.053 344.605L816.271 343.919Z"/><defs><linearGradient id="gradient_3" gradientUnits="userSpaceOnUse" x1="779.48523" y1="342.39017" x2="790.922" y2="359.87799"><stop offset="0" stop-color="#001D24"/><stop offset="1" stop-color="#184058"/></linearGradient></defs><path fill="url(#gradient_3)" transform="scale(2 2)" d="M752.961 362.624C757.648 365.396 768.625 365.505 773.936 364.669C794.822 361.381 807.327 342.967 818.81 327.176C818.113 332.779 817.266 338.361 816.271 343.919L814.053 344.605C814.391 341.976 814.648 339.95 814.743 337.272C794.591 363.197 779.125 374.338 745.736 363.705L750.628 360.578L752.961 362.624Z"/><path fill="#001430" transform="scale(2 2)" d="M590.629 230.002L592.877 231C585.649 249.839 585.872 260.592 601.191 274.867C605.302 259.268 607.916 247.03 613.743 231.707L615.791 232.454C609.167 249.028 606.472 261.598 603.195 279.069C584.078 266.048 583.049 250.162 590.629 230.002Z"/><path fill="#183645" transform="scale(2 2)" d="M777.665 197.499L779.437 197.5C765.508 217.982 751.467 241.797 754.453 267.324C754.12 268.118 753.517 269.696 753.145 270.39C753.017 269.967 752.905 269.54 752.811 269.109C747.254 244.55 765.285 216.979 777.665 197.499Z"/><path fill="#183645" transform="scale(2 2)" d="M709.908 156.615C710.338 157.342 710.987 158.336 711.279 159.09C704.604 163.36 699.417 166.92 693.029 171.723L691.352 170.429C695.095 166.447 705.145 160.658 709.908 156.615Z"/><path fill="#0076C9" transform="scale(2 2)" d="M659.041 304.959C662.145 294.208 660.731 293.218 666.448 280.991C679.071 253.998 720.372 229.625 748.338 220.268C742.043 228.562 734.71 237.731 729.357 246.514C716.823 267.317 711.702 291.752 714.83 315.837C715.678 322.526 718.424 331.225 726.759 328.742C742.55 324.037 753.52 306.641 761.723 293.903C761.105 303.493 758.384 319.218 753.857 327.477C750.261 337.552 741.844 349.928 733.432 356.644C729.373 361.051 721.591 366.164 716.483 369.151C705.079 375.752 692.908 380.93 680.244 384.57C665.339 388.79 655.876 390.149 641.339 397.026C624.229 405.12 612.998 417.95 598.564 427.769C604.38 409.78 611.564 398.069 613.309 377.835C614.783 360.734 611.959 351.608 610.174 335.32C608.818 322.948 612.461 305.46 615.893 293.267C624.173 263.851 641.499 246.197 667.573 231.663C649.593 257.525 632.587 277.881 659.041 304.959Z"/><path fill="#001430" transform="scale(2 2)" d="M659.041 304.959C662.145 294.208 660.731 293.218 666.448 280.991C679.071 253.998 720.372 229.625 748.338 220.268C742.043 228.562 734.71 237.731 729.357 246.514C716.823 267.317 711.702 291.752 714.83 315.837C715.678 322.526 718.424 331.225 726.759 328.742C742.55 324.037 753.52 306.641 761.723 293.903C761.105 303.493 758.384 319.218 753.857 327.477C750.063 330.115 751.924 332.762 748.227 333.534C753.768 322.034 755.034 317.961 757.734 305.398C752.819 311.999 747.868 318.562 741.31 323.666C726.774 334.98 714.546 336.809 711.926 315.005C708.963 290.409 714.387 265.534 727.318 244.404C731.314 237.823 735.465 232.861 739.602 226.744C711.6 238.54 678.394 258.215 666.562 287.497C665.441 290.267 664.53 293.116 663.836 296.022C663.037 299.405 662.73 306.042 661.174 308.155C657.905 309.037 652.864 302.184 650.876 299.743C634.468 279.6 645.379 259.585 657.639 241.344C631.859 257.574 622.579 277.288 615.091 306.522C609.062 330.063 616.472 348.706 616.556 371.738C616.611 386.811 609.749 405.969 604.313 420.254C627.522 398.391 648.605 388.607 679.273 382.124C696.653 378.45 717.67 366.239 731.395 354.955C733.047 355.765 732.413 355.198 733.432 356.644C729.373 361.051 721.591 366.164 716.483 369.151C705.079 375.752 692.908 380.93 680.244 384.57C665.339 388.79 655.876 390.149 641.339 397.026C624.229 405.12 612.998 417.95 598.564 427.769C604.38 409.78 611.564 398.069 613.309 377.835C614.783 360.734 611.959 351.608 610.174 335.32C608.818 322.948 612.461 305.46 615.893 293.267C624.173 263.851 641.499 246.197 667.573 231.663C649.593 257.525 632.587 277.881 659.041 304.959Z"/><path fill="#0D345C" transform="scale(2 2)" d="M748.227 333.534C751.924 332.762 750.063 330.115 753.857 327.477C750.261 337.552 741.844 349.928 733.432 356.644C732.413 355.198 733.047 355.765 731.395 354.955C738.048 346.365 741.307 344.041 748.227 333.534Z"/><path fill="#010001" transform="scale(2 2)" d="M320.177 805.374C320.957 806.584 321.005 806.506 321.498 807.817L321.175 808.804C322.873 809.667 327.2 808.704 329.379 808.371C334.699 808.98 338.51 809.712 343.382 812.163L346.759 814.114L348.523 815.468C356.953 824.284 354.709 826.629 358.672 834.858L361.601 835.001C354.072 846.182 346.143 857.75 338.954 869.131C335.769 874.54 330.904 881.434 325.883 885.169C313.09 894.684 299.673 906.934 286.61 915.787C286.715 915.707 285.237 916.8 285.391 916.712C278.88 920.419 274.559 932.86 265.707 930.238C264.791 929.967 263.771 928.63 263.678 927.786C262.84 920.245 268.82 913.728 271.079 906.871C275.561 891.87 278.934 875.939 284.932 861.529C293.153 841.774 308.268 823.455 320.177 805.374Z"/><path fill="#0076C9" transform="scale(2 2)" d="M327.779 846.758C333.368 853.004 338.057 860.762 335.692 869.413L338.954 869.131C335.769 874.54 330.904 881.434 325.883 885.169C313.09 894.684 299.673 906.934 286.61 915.787L285.727 913.577C284.064 909.862 281.704 905.885 277.241 905.497C283.015 903.761 284.953 899.726 287.779 894.781C307.374 880.808 313.336 865.016 327.779 846.758Z"/><path fill="#0D345C" transform="scale(2 2)" d="M285.727 913.577C287.623 912.9 294.614 906.901 296.625 905.106C310.377 892.834 325.879 885.584 335.692 869.413L338.954 869.131C335.769 874.54 330.904 881.434 325.883 885.169C313.09 894.684 299.673 906.934 286.61 915.787L285.727 913.577Z"/><path fill="#ADD5FD" transform="scale(2 2)" d="M287.779 894.781C284.953 899.726 283.015 903.761 277.241 905.497C271.819 904.311 274.95 899.193 276.321 895.44C280.729 895.704 283.457 895.86 287.779 894.781Z"/><path fill="#ADD5FD" transform="scale(2 2)" d="M303.343 839.657C313.659 839.202 317.036 840.008 325.809 845.459C315.423 859.05 305.883 876.048 293.534 887.741C292.801 888.369 292.047 888.972 291.272 889.548C288.275 891.754 283.307 894.292 279.499 893.693C276.672 891.664 278.385 887.06 279.461 884.214C283.643 873.149 290.559 842.599 303.343 839.657Z"/><path fill="#FEFEFE" transform="scale(2 2)" d="M285.858 874.368C287.209 871.043 298.468 839.159 306.253 844.028C315.483 849.8 302.153 872.036 296.712 877.058C295.463 878.5 293.082 880.731 291.736 881.79C291.552 882.053 290.577 883.401 290.504 883.589C288.857 885.359 285.769 888.53 283.591 885.556C281.397 880.521 282.917 878.644 285.858 874.368Z"/><path fill="#D0E3FD" transform="scale(2 2)" d="M283.591 885.556C281.397 880.521 282.917 878.644 285.858 874.368C286.3 879.096 286.531 880.981 291.736 881.79C291.552 882.053 290.577 883.401 290.504 883.589C288.857 885.359 285.769 888.53 283.591 885.556Z"/><path fill="#FEFEFE" transform="scale(2 2)" d="M283.591 885.556C284.378 883.125 284.186 882.753 286.648 882.007C288.672 882.476 288.661 882.537 290.504 883.589C288.857 885.359 285.769 888.53 283.591 885.556Z"/></svg>